<mxfile host="Electron" modified="2023-05-01T20:07:09.953Z" agent="Mozilla/5.0 (Windows NT 10.0; Win64; x64) AppleWebKit/537.36 (KHTML, like Gecko) draw.io/21.2.1 Chrome/112.0.5615.87 Electron/24.1.2 Safari/537.36" etag="6Ie62UNu4VCi_ojkqB3y" version="21.2.1" type="device">
  <diagram id="ONQ6QIIeOUnGm8nfe2OK" name="Page-1">
    <mxGraphModel dx="3160" dy="2549" grid="1" gridSize="10" guides="1" tooltips="1" connect="1" arrows="1" fold="1" page="1" pageScale="1" pageWidth="827" pageHeight="1169" math="0" shadow="0">
      <root>
        <mxCell id="0" />
        <mxCell id="1" parent="0" />
        <mxCell id="N1mzBfULyDI2BNzyuwL3-1" value="Person" style="rounded=0;whiteSpace=wrap;html=1;" parent="1" vertex="1">
          <mxGeometry x="-90" y="-1000" width="190" height="60" as="geometry" />
        </mxCell>
        <mxCell id="N1mzBfULyDI2BNzyuwL3-5" value="Address" style="ellipse;whiteSpace=wrap;html=1;" parent="1" vertex="1">
          <mxGeometry x="-220" y="-1120" width="90" height="70" as="geometry" />
        </mxCell>
        <mxCell id="N1mzBfULyDI2BNzyuwL3-6" value="Religion" style="ellipse;whiteSpace=wrap;html=1;" parent="1" vertex="1">
          <mxGeometry x="-90" y="-1120" width="90" height="70" as="geometry" />
        </mxCell>
        <mxCell id="N1mzBfULyDI2BNzyuwL3-8" value="Gender" style="ellipse;whiteSpace=wrap;html=1;" parent="1" vertex="1">
          <mxGeometry x="30" y="-1120" width="90" height="70" as="geometry" />
        </mxCell>
        <mxCell id="N1mzBfULyDI2BNzyuwL3-9" value="&lt;u&gt;SSN&lt;/u&gt;" style="ellipse;whiteSpace=wrap;html=1;" parent="1" vertex="1">
          <mxGeometry x="140" y="-1100" width="60" height="60" as="geometry" />
        </mxCell>
        <mxCell id="N1mzBfULyDI2BNzyuwL3-10" value="Name" style="ellipse;whiteSpace=wrap;html=1;" parent="1" vertex="1">
          <mxGeometry x="220" y="-1080" width="60" height="60" as="geometry" />
        </mxCell>
        <mxCell id="N1mzBfULyDI2BNzyuwL3-11" value="" style="endArrow=none;html=1;rounded=0;entryX=0;entryY=0;entryDx=0;entryDy=0;exitX=0.5;exitY=1;exitDx=0;exitDy=0;" parent="1" source="N1mzBfULyDI2BNzyuwL3-6" target="N1mzBfULyDI2BNzyuwL3-1" edge="1">
          <mxGeometry width="50" height="50" relative="1" as="geometry">
            <mxPoint x="-149" y="-1039" as="sourcePoint" />
            <mxPoint x="-110" y="-940" as="targetPoint" />
          </mxGeometry>
        </mxCell>
        <mxCell id="N1mzBfULyDI2BNzyuwL3-12" value="" style="endArrow=none;html=1;rounded=0;entryX=0;entryY=0;entryDx=0;entryDy=0;" parent="1" source="N1mzBfULyDI2BNzyuwL3-5" target="N1mzBfULyDI2BNzyuwL3-1" edge="1">
          <mxGeometry width="50" height="50" relative="1" as="geometry">
            <mxPoint x="-139" y="-1029" as="sourcePoint" />
            <mxPoint x="-100" y="-1000" as="targetPoint" />
          </mxGeometry>
        </mxCell>
        <mxCell id="N1mzBfULyDI2BNzyuwL3-14" value="City" style="ellipse;whiteSpace=wrap;html=1;" parent="1" vertex="1">
          <mxGeometry x="-350" y="-1070" width="70" height="60" as="geometry" />
        </mxCell>
        <mxCell id="N1mzBfULyDI2BNzyuwL3-16" value="Street No" style="ellipse;whiteSpace=wrap;html=1;" parent="1" vertex="1">
          <mxGeometry x="-350" y="-1140" width="70" height="60" as="geometry" />
        </mxCell>
        <mxCell id="N1mzBfULyDI2BNzyuwL3-17" value="" style="endArrow=none;html=1;rounded=0;exitX=1;exitY=0.5;exitDx=0;exitDy=0;" parent="1" source="N1mzBfULyDI2BNzyuwL3-16" target="N1mzBfULyDI2BNzyuwL3-5" edge="1">
          <mxGeometry width="50" height="50" relative="1" as="geometry">
            <mxPoint x="-360" y="-970" as="sourcePoint" />
            <mxPoint x="-310" y="-1020" as="targetPoint" />
          </mxGeometry>
        </mxCell>
        <mxCell id="N1mzBfULyDI2BNzyuwL3-19" value="" style="endArrow=none;html=1;rounded=0;" parent="1" source="N1mzBfULyDI2BNzyuwL3-14" target="N1mzBfULyDI2BNzyuwL3-5" edge="1">
          <mxGeometry width="50" height="50" relative="1" as="geometry">
            <mxPoint x="-400" y="-940" as="sourcePoint" />
            <mxPoint x="-350" y="-990" as="targetPoint" />
          </mxGeometry>
        </mxCell>
        <mxCell id="N1mzBfULyDI2BNzyuwL3-20" value="" style="endArrow=none;html=1;rounded=0;" parent="1" source="N1mzBfULyDI2BNzyuwL3-1" target="N1mzBfULyDI2BNzyuwL3-8" edge="1">
          <mxGeometry width="50" height="50" relative="1" as="geometry">
            <mxPoint x="-160" y="-890" as="sourcePoint" />
            <mxPoint x="-110" y="-940" as="targetPoint" />
          </mxGeometry>
        </mxCell>
        <mxCell id="N1mzBfULyDI2BNzyuwL3-21" value="" style="endArrow=none;html=1;rounded=0;" parent="1" source="N1mzBfULyDI2BNzyuwL3-1" target="N1mzBfULyDI2BNzyuwL3-9" edge="1">
          <mxGeometry width="50" height="50" relative="1" as="geometry">
            <mxPoint x="90" y="-980" as="sourcePoint" />
            <mxPoint x="140" y="-1030" as="targetPoint" />
          </mxGeometry>
        </mxCell>
        <mxCell id="N1mzBfULyDI2BNzyuwL3-22" value="" style="endArrow=none;html=1;rounded=0;" parent="1" source="N1mzBfULyDI2BNzyuwL3-1" target="N1mzBfULyDI2BNzyuwL3-10" edge="1">
          <mxGeometry width="50" height="50" relative="1" as="geometry">
            <mxPoint x="160" y="-970" as="sourcePoint" />
            <mxPoint x="210" y="-1020" as="targetPoint" />
          </mxGeometry>
        </mxCell>
        <mxCell id="N1mzBfULyDI2BNzyuwL3-24" value="Birth Date" style="ellipse;whiteSpace=wrap;html=1;" parent="1" vertex="1">
          <mxGeometry x="300" y="-1060" width="90" height="70" as="geometry" />
        </mxCell>
        <mxCell id="N1mzBfULyDI2BNzyuwL3-25" value="" style="endArrow=none;html=1;rounded=0;" parent="1" source="N1mzBfULyDI2BNzyuwL3-1" target="N1mzBfULyDI2BNzyuwL3-24" edge="1">
          <mxGeometry width="50" height="50" relative="1" as="geometry">
            <mxPoint x="-160" y="-890" as="sourcePoint" />
            <mxPoint x="-110" y="-940" as="targetPoint" />
          </mxGeometry>
        </mxCell>
        <mxCell id="N1mzBfULyDI2BNzyuwL3-26" value="&lt;div style=&quot;text-align: right;&quot;&gt;&lt;br&gt;&lt;/div&gt;" style="triangle;whiteSpace=wrap;html=1;rotation=90;" parent="1" vertex="1">
          <mxGeometry x="-25" y="-890" width="60" height="80" as="geometry" />
        </mxCell>
        <mxCell id="N1mzBfULyDI2BNzyuwL3-29" value="" style="endArrow=none;html=1;rounded=0;entryX=0.5;entryY=1;entryDx=0;entryDy=0;" parent="1" source="N1mzBfULyDI2BNzyuwL3-26" target="N1mzBfULyDI2BNzyuwL3-1" edge="1">
          <mxGeometry width="50" height="50" relative="1" as="geometry">
            <mxPoint x="-160" y="-780" as="sourcePoint" />
            <mxPoint x="-110" y="-830" as="targetPoint" />
          </mxGeometry>
        </mxCell>
        <mxCell id="ilKd4mXJEwFR4TKSU7tU-21" style="edgeStyle=orthogonalEdgeStyle;rounded=0;orthogonalLoop=1;jettySize=auto;html=1;entryX=0;entryY=0.5;entryDx=0;entryDy=0;endArrow=none;endFill=0;" parent="1" source="N1mzBfULyDI2BNzyuwL3-31" target="N1mzBfULyDI2BNzyuwL3-108" edge="1">
          <mxGeometry relative="1" as="geometry" />
        </mxCell>
        <mxCell id="ilKd4mXJEwFR4TKSU7tU-40" style="edgeStyle=orthogonalEdgeStyle;rounded=0;orthogonalLoop=1;jettySize=auto;html=1;entryX=0;entryY=0.5;entryDx=0;entryDy=0;endArrow=none;endFill=0;" parent="1" source="N1mzBfULyDI2BNzyuwL3-31" target="N1mzBfULyDI2BNzyuwL3-67" edge="1">
          <mxGeometry relative="1" as="geometry">
            <Array as="points">
              <mxPoint x="160" y="-700" />
              <mxPoint x="160" y="-500" />
            </Array>
          </mxGeometry>
        </mxCell>
        <mxCell id="N1mzBfULyDI2BNzyuwL3-31" value="Student" style="rounded=0;whiteSpace=wrap;html=1;" parent="1" vertex="1">
          <mxGeometry x="180" y="-730" width="190" height="60" as="geometry" />
        </mxCell>
        <mxCell id="N1mzBfULyDI2BNzyuwL3-56" style="edgeStyle=orthogonalEdgeStyle;rounded=0;orthogonalLoop=1;jettySize=auto;html=1;" parent="1" source="N1mzBfULyDI2BNzyuwL3-33" target="N1mzBfULyDI2BNzyuwL3-57" edge="1">
          <mxGeometry relative="1" as="geometry">
            <mxPoint x="-275" y="-540" as="targetPoint" />
          </mxGeometry>
        </mxCell>
        <mxCell id="N1mzBfULyDI2BNzyuwL3-33" value="Staff" style="rounded=0;whiteSpace=wrap;html=1;" parent="1" vertex="1">
          <mxGeometry x="-370" y="-730" width="190" height="60" as="geometry" />
        </mxCell>
        <mxCell id="N1mzBfULyDI2BNzyuwL3-36" style="edgeStyle=orthogonalEdgeStyle;rounded=0;orthogonalLoop=1;jettySize=auto;html=1;entryX=0.5;entryY=0;entryDx=0;entryDy=0;" parent="1" source="N1mzBfULyDI2BNzyuwL3-34" target="N1mzBfULyDI2BNzyuwL3-33" edge="1">
          <mxGeometry relative="1" as="geometry" />
        </mxCell>
        <mxCell id="N1mzBfULyDI2BNzyuwL3-37" style="edgeStyle=orthogonalEdgeStyle;rounded=0;orthogonalLoop=1;jettySize=auto;html=1;exitX=1;exitY=0.5;exitDx=0;exitDy=0;" parent="1" source="N1mzBfULyDI2BNzyuwL3-34" target="N1mzBfULyDI2BNzyuwL3-31" edge="1">
          <mxGeometry relative="1" as="geometry" />
        </mxCell>
        <mxCell id="N1mzBfULyDI2BNzyuwL3-34" value="D" style="ellipse;whiteSpace=wrap;html=1;aspect=fixed;" parent="1" vertex="1">
          <mxGeometry x="-20" y="-820" width="50" height="50" as="geometry" />
        </mxCell>
        <mxCell id="N1mzBfULyDI2BNzyuwL3-38" value="&lt;u&gt;ID&lt;/u&gt;" style="ellipse;whiteSpace=wrap;html=1;" parent="1" vertex="1">
          <mxGeometry x="280" y="-825" width="50" height="50" as="geometry" />
        </mxCell>
        <mxCell id="N1mzBfULyDI2BNzyuwL3-40" value="" style="endArrow=none;html=1;rounded=0;entryX=0.5;entryY=1;entryDx=0;entryDy=0;exitX=0.75;exitY=0;exitDx=0;exitDy=0;" parent="1" source="N1mzBfULyDI2BNzyuwL3-31" target="N1mzBfULyDI2BNzyuwL3-38" edge="1">
          <mxGeometry width="50" height="50" relative="1" as="geometry">
            <mxPoint x="40" y="-790" as="sourcePoint" />
            <mxPoint x="90" y="-840" as="targetPoint" />
          </mxGeometry>
        </mxCell>
        <mxCell id="N1mzBfULyDI2BNzyuwL3-43" style="rounded=0;orthogonalLoop=1;jettySize=auto;html=1;entryX=0;entryY=0.5;entryDx=0;entryDy=0;endArrow=none;endFill=0;" parent="1" source="N1mzBfULyDI2BNzyuwL3-42" target="N1mzBfULyDI2BNzyuwL3-1" edge="1">
          <mxGeometry relative="1" as="geometry" />
        </mxCell>
        <mxCell id="N1mzBfULyDI2BNzyuwL3-42" value="Enrolled_Dept" style="ellipse;whiteSpace=wrap;html=1;" parent="1" vertex="1">
          <mxGeometry x="-335" y="-1000" width="90" height="60" as="geometry" />
        </mxCell>
        <mxCell id="N1mzBfULyDI2BNzyuwL3-46" value="Experience" style="ellipse;whiteSpace=wrap;html=1;aspect=fixed;" parent="1" vertex="1">
          <mxGeometry x="-400" y="-875" width="80" height="80" as="geometry" />
        </mxCell>
        <mxCell id="N1mzBfULyDI2BNzyuwL3-48" value="" style="endArrow=none;html=1;rounded=0;exitX=0.5;exitY=1;exitDx=0;exitDy=0;entryX=0.25;entryY=0;entryDx=0;entryDy=0;" parent="1" source="N1mzBfULyDI2BNzyuwL3-46" target="N1mzBfULyDI2BNzyuwL3-33" edge="1">
          <mxGeometry width="50" height="50" relative="1" as="geometry">
            <mxPoint x="40" y="-730" as="sourcePoint" />
            <mxPoint x="90" y="-780" as="targetPoint" />
          </mxGeometry>
        </mxCell>
        <mxCell id="N1mzBfULyDI2BNzyuwL3-49" value="CGPA" style="ellipse;whiteSpace=wrap;html=1;aspect=fixed;" parent="1" vertex="1">
          <mxGeometry x="350" y="-830" width="60" height="60" as="geometry" />
        </mxCell>
        <mxCell id="N1mzBfULyDI2BNzyuwL3-51" value="" style="endArrow=none;html=1;rounded=0;entryX=0.5;entryY=1;entryDx=0;entryDy=0;exitX=0.932;exitY=-0.043;exitDx=0;exitDy=0;exitPerimeter=0;" parent="1" source="N1mzBfULyDI2BNzyuwL3-31" target="N1mzBfULyDI2BNzyuwL3-49" edge="1">
          <mxGeometry width="50" height="50" relative="1" as="geometry">
            <mxPoint x="40" y="-730" as="sourcePoint" />
            <mxPoint x="90" y="-780" as="targetPoint" />
          </mxGeometry>
        </mxCell>
        <mxCell id="N1mzBfULyDI2BNzyuwL3-52" value="Tuition Fees" style="ellipse;whiteSpace=wrap;html=1;" parent="1" vertex="1">
          <mxGeometry x="420" y="-835" width="80" height="70" as="geometry" />
        </mxCell>
        <mxCell id="N1mzBfULyDI2BNzyuwL3-53" value="" style="endArrow=none;html=1;rounded=0;entryX=0;entryY=1;entryDx=0;entryDy=0;exitX=1;exitY=0;exitDx=0;exitDy=0;" parent="1" source="N1mzBfULyDI2BNzyuwL3-31" target="N1mzBfULyDI2BNzyuwL3-52" edge="1">
          <mxGeometry width="50" height="50" relative="1" as="geometry">
            <mxPoint x="290" y="-700" as="sourcePoint" />
            <mxPoint x="90" y="-790" as="targetPoint" />
          </mxGeometry>
        </mxCell>
        <mxCell id="N1mzBfULyDI2BNzyuwL3-54" value="Salary" style="ellipse;whiteSpace=wrap;html=1;aspect=fixed;" parent="1" vertex="1">
          <mxGeometry x="-500" y="-875" width="80" height="80" as="geometry" />
        </mxCell>
        <mxCell id="N1mzBfULyDI2BNzyuwL3-55" value="" style="endArrow=none;html=1;rounded=0;exitX=0.5;exitY=1;exitDx=0;exitDy=0;entryX=0;entryY=0.5;entryDx=0;entryDy=0;" parent="1" source="N1mzBfULyDI2BNzyuwL3-54" target="N1mzBfULyDI2BNzyuwL3-33" edge="1">
          <mxGeometry width="50" height="50" relative="1" as="geometry">
            <mxPoint x="-150" y="-740" as="sourcePoint" />
            <mxPoint x="-100" y="-790" as="targetPoint" />
          </mxGeometry>
        </mxCell>
        <mxCell id="N1mzBfULyDI2BNzyuwL3-63" style="edgeStyle=orthogonalEdgeStyle;rounded=0;orthogonalLoop=1;jettySize=auto;html=1;entryX=0.5;entryY=0;entryDx=0;entryDy=0;exitX=1;exitY=0.5;exitDx=0;exitDy=0;endArrow=none;endFill=0;" parent="1" source="N1mzBfULyDI2BNzyuwL3-162" target="N1mzBfULyDI2BNzyuwL3-61" edge="1">
          <mxGeometry relative="1" as="geometry">
            <Array as="points">
              <mxPoint y="-522" />
              <mxPoint y="-400" />
            </Array>
          </mxGeometry>
        </mxCell>
        <mxCell id="N1mzBfULyDI2BNzyuwL3-57" value="" style="triangle;whiteSpace=wrap;html=1;rotation=90;" parent="1" vertex="1">
          <mxGeometry x="-305" y="-625" width="60" height="80" as="geometry" />
        </mxCell>
        <mxCell id="N1mzBfULyDI2BNzyuwL3-165" style="edgeStyle=orthogonalEdgeStyle;rounded=0;orthogonalLoop=1;jettySize=auto;html=1;entryX=0;entryY=0.5;entryDx=0;entryDy=0;exitX=0;exitY=0.5;exitDx=0;exitDy=0;endArrow=none;endFill=0;" parent="1" source="N1mzBfULyDI2BNzyuwL3-59" target="N1mzBfULyDI2BNzyuwL3-164" edge="1">
          <mxGeometry relative="1" as="geometry" />
        </mxCell>
        <mxCell id="N1mzBfULyDI2BNzyuwL3-59" value="Assistant" style="rounded=0;whiteSpace=wrap;html=1;" parent="1" vertex="1">
          <mxGeometry x="-740" y="-400" width="190" height="60" as="geometry" />
        </mxCell>
        <mxCell id="ilKd4mXJEwFR4TKSU7tU-9" style="edgeStyle=orthogonalEdgeStyle;rounded=0;orthogonalLoop=1;jettySize=auto;html=1;entryX=0.5;entryY=0;entryDx=0;entryDy=0;endArrow=none;endFill=0;" parent="1" source="N1mzBfULyDI2BNzyuwL3-61" target="N1mzBfULyDI2BNzyuwL3-192" edge="1">
          <mxGeometry relative="1" as="geometry" />
        </mxCell>
        <mxCell id="N1mzBfULyDI2BNzyuwL3-61" value="Doctor" style="rounded=0;whiteSpace=wrap;html=1;" parent="1" vertex="1">
          <mxGeometry x="-90" y="-400" width="190" height="60" as="geometry" />
        </mxCell>
        <mxCell id="N1mzBfULyDI2BNzyuwL3-66" value="Courses" style="rounded=0;whiteSpace=wrap;html=1;" parent="1" vertex="1">
          <mxGeometry x="180" y="-290" width="190" height="60" as="geometry" />
        </mxCell>
        <mxCell id="ilKd4mXJEwFR4TKSU7tU-29" style="edgeStyle=orthogonalEdgeStyle;rounded=0;orthogonalLoop=1;jettySize=auto;html=1;entryX=0.5;entryY=0;entryDx=0;entryDy=0;exitX=0.5;exitY=1;exitDx=0;exitDy=0;" parent="1" source="N1mzBfULyDI2BNzyuwL3-67" target="N1mzBfULyDI2BNzyuwL3-66" edge="1">
          <mxGeometry relative="1" as="geometry" />
        </mxCell>
        <mxCell id="N1mzBfULyDI2BNzyuwL3-67" value="Enrolls in" style="rhombus;whiteSpace=wrap;html=1;" parent="1" vertex="1">
          <mxGeometry x="235" y="-540" width="80" height="80" as="geometry" />
        </mxCell>
        <mxCell id="N1mzBfULyDI2BNzyuwL3-70" value="Credits" style="ellipse;whiteSpace=wrap;html=1;" parent="1" vertex="1">
          <mxGeometry x="280" y="-395" width="60" height="50" as="geometry" />
        </mxCell>
        <mxCell id="N1mzBfULyDI2BNzyuwL3-71" value="&lt;u&gt;Course_ID&lt;/u&gt;" style="ellipse;whiteSpace=wrap;html=1;" parent="1" vertex="1">
          <mxGeometry x="479.5" y="-277.5" width="100" height="35" as="geometry" />
        </mxCell>
        <mxCell id="N1mzBfULyDI2BNzyuwL3-74" value="Course_Name" style="ellipse;whiteSpace=wrap;html=1;" parent="1" vertex="1">
          <mxGeometry x="340" y="-390" width="80" height="50" as="geometry" />
        </mxCell>
        <mxCell id="N1mzBfULyDI2BNzyuwL3-75" value="Instructor" style="ellipse;whiteSpace=wrap;html=1;aspect=fixed;" parent="1" vertex="1">
          <mxGeometry x="422" y="-387.5" width="57.5" height="57.5" as="geometry" />
        </mxCell>
        <mxCell id="N1mzBfULyDI2BNzyuwL3-76" value="Pre_requests" style="ellipse;whiteSpace=wrap;html=1;aspect=fixed;" parent="1" vertex="1">
          <mxGeometry x="470" y="-350" width="70" height="70" as="geometry" />
        </mxCell>
        <mxCell id="N1mzBfULyDI2BNzyuwL3-77" value="" style="endArrow=none;html=1;rounded=0;entryX=0;entryY=0.5;entryDx=0;entryDy=0;exitX=1;exitY=0.25;exitDx=0;exitDy=0;" parent="1" source="N1mzBfULyDI2BNzyuwL3-66" target="N1mzBfULyDI2BNzyuwL3-76" edge="1">
          <mxGeometry width="50" height="50" relative="1" as="geometry">
            <mxPoint x="-50" y="-340" as="sourcePoint" />
            <mxPoint y="-390" as="targetPoint" />
          </mxGeometry>
        </mxCell>
        <mxCell id="N1mzBfULyDI2BNzyuwL3-78" value="" style="endArrow=none;html=1;rounded=0;exitX=1;exitY=0;exitDx=0;exitDy=0;entryX=0;entryY=1;entryDx=0;entryDy=0;" parent="1" source="N1mzBfULyDI2BNzyuwL3-66" target="N1mzBfULyDI2BNzyuwL3-75" edge="1">
          <mxGeometry width="50" height="50" relative="1" as="geometry">
            <mxPoint x="-40" y="-330" as="sourcePoint" />
            <mxPoint x="10" y="-380" as="targetPoint" />
          </mxGeometry>
        </mxCell>
        <mxCell id="N1mzBfULyDI2BNzyuwL3-79" value="" style="endArrow=none;html=1;rounded=0;exitX=0.75;exitY=0;exitDx=0;exitDy=0;entryX=0.5;entryY=1;entryDx=0;entryDy=0;" parent="1" source="N1mzBfULyDI2BNzyuwL3-66" target="N1mzBfULyDI2BNzyuwL3-74" edge="1">
          <mxGeometry width="50" height="50" relative="1" as="geometry">
            <mxPoint x="-30" y="-320" as="sourcePoint" />
            <mxPoint x="20" y="-370" as="targetPoint" />
          </mxGeometry>
        </mxCell>
        <mxCell id="N1mzBfULyDI2BNzyuwL3-80" value="" style="endArrow=none;html=1;rounded=0;entryX=0.5;entryY=1;entryDx=0;entryDy=0;exitX=0.75;exitY=0;exitDx=0;exitDy=0;" parent="1" source="N1mzBfULyDI2BNzyuwL3-66" target="N1mzBfULyDI2BNzyuwL3-70" edge="1">
          <mxGeometry width="50" height="50" relative="1" as="geometry">
            <mxPoint x="-20" y="-310" as="sourcePoint" />
            <mxPoint x="30" y="-360" as="targetPoint" />
            <Array as="points" />
          </mxGeometry>
        </mxCell>
        <mxCell id="N1mzBfULyDI2BNzyuwL3-93" value="First_Name" style="ellipse;whiteSpace=wrap;html=1;aspect=fixed;" parent="1" vertex="1">
          <mxGeometry x="215" y="-1165" width="70" height="70" as="geometry" />
        </mxCell>
        <mxCell id="N1mzBfULyDI2BNzyuwL3-94" value="" style="endArrow=none;html=1;rounded=0;entryX=0.368;entryY=0.992;entryDx=0;entryDy=0;entryPerimeter=0;exitX=0.5;exitY=0;exitDx=0;exitDy=0;" parent="1" source="N1mzBfULyDI2BNzyuwL3-10" target="N1mzBfULyDI2BNzyuwL3-93" edge="1">
          <mxGeometry width="50" height="50" relative="1" as="geometry">
            <mxPoint x="200" y="-960" as="sourcePoint" />
            <mxPoint x="160" y="-1000" as="targetPoint" />
          </mxGeometry>
        </mxCell>
        <mxCell id="N1mzBfULyDI2BNzyuwL3-95" value="Last_Name" style="ellipse;whiteSpace=wrap;html=1;aspect=fixed;" parent="1" vertex="1">
          <mxGeometry x="295" y="-1160" width="80" height="80" as="geometry" />
        </mxCell>
        <mxCell id="N1mzBfULyDI2BNzyuwL3-96" value="" style="endArrow=none;html=1;rounded=0;entryX=0.5;entryY=1;entryDx=0;entryDy=0;" parent="1" source="N1mzBfULyDI2BNzyuwL3-10" target="N1mzBfULyDI2BNzyuwL3-95" edge="1">
          <mxGeometry width="50" height="50" relative="1" as="geometry">
            <mxPoint x="110" y="-950" as="sourcePoint" />
            <mxPoint x="160" y="-1000" as="targetPoint" />
          </mxGeometry>
        </mxCell>
        <mxCell id="N1mzBfULyDI2BNzyuwL3-99" value="Day" style="ellipse;whiteSpace=wrap;html=1;aspect=fixed;" parent="1" vertex="1">
          <mxGeometry x="440" y="-1085" width="50" height="50" as="geometry" />
        </mxCell>
        <mxCell id="N1mzBfULyDI2BNzyuwL3-100" value="Month" style="ellipse;whiteSpace=wrap;html=1;" parent="1" vertex="1">
          <mxGeometry x="450" y="-1030" width="50" height="50" as="geometry" />
        </mxCell>
        <mxCell id="N1mzBfULyDI2BNzyuwL3-101" value="Year" style="ellipse;whiteSpace=wrap;html=1;" parent="1" vertex="1">
          <mxGeometry x="409.5" y="-980" width="51" height="50" as="geometry" />
        </mxCell>
        <mxCell id="N1mzBfULyDI2BNzyuwL3-102" value="" style="endArrow=none;html=1;rounded=0;entryX=0;entryY=0.5;entryDx=0;entryDy=0;exitX=1;exitY=0;exitDx=0;exitDy=0;" parent="1" source="N1mzBfULyDI2BNzyuwL3-24" target="N1mzBfULyDI2BNzyuwL3-99" edge="1">
          <mxGeometry width="50" height="50" relative="1" as="geometry">
            <mxPoint x="110" y="-950" as="sourcePoint" />
            <mxPoint x="160" y="-1000" as="targetPoint" />
          </mxGeometry>
        </mxCell>
        <mxCell id="N1mzBfULyDI2BNzyuwL3-103" value="" style="endArrow=none;html=1;rounded=0;entryX=0;entryY=0.5;entryDx=0;entryDy=0;exitX=1;exitY=0.5;exitDx=0;exitDy=0;" parent="1" source="N1mzBfULyDI2BNzyuwL3-24" target="N1mzBfULyDI2BNzyuwL3-100" edge="1">
          <mxGeometry width="50" height="50" relative="1" as="geometry">
            <mxPoint x="370" y="-960" as="sourcePoint" />
            <mxPoint x="420" y="-1010" as="targetPoint" />
          </mxGeometry>
        </mxCell>
        <mxCell id="N1mzBfULyDI2BNzyuwL3-104" value="" style="endArrow=none;html=1;rounded=0;entryX=0;entryY=0.5;entryDx=0;entryDy=0;exitX=1;exitY=1;exitDx=0;exitDy=0;" parent="1" source="N1mzBfULyDI2BNzyuwL3-24" target="N1mzBfULyDI2BNzyuwL3-101" edge="1">
          <mxGeometry width="50" height="50" relative="1" as="geometry">
            <mxPoint x="110" y="-950" as="sourcePoint" />
            <mxPoint x="160" y="-1000" as="targetPoint" />
          </mxGeometry>
        </mxCell>
        <mxCell id="ilKd4mXJEwFR4TKSU7tU-5" style="edgeStyle=orthogonalEdgeStyle;rounded=0;orthogonalLoop=1;jettySize=auto;html=1;" parent="1" source="N1mzBfULyDI2BNzyuwL3-108" target="N1mzBfULyDI2BNzyuwL3-114" edge="1">
          <mxGeometry relative="1" as="geometry" />
        </mxCell>
        <mxCell id="N1mzBfULyDI2BNzyuwL3-108" value="&lt;font style=&quot;font-size: 16px;&quot;&gt;Has&lt;/font&gt;" style="rhombus;whiteSpace=wrap;html=1;" parent="1" vertex="1">
          <mxGeometry x="520" y="-740" width="80" height="80" as="geometry" />
        </mxCell>
        <mxCell id="N1mzBfULyDI2BNzyuwL3-114" value="Absence" style="rounded=0;whiteSpace=wrap;html=1;" parent="1" vertex="1">
          <mxGeometry x="740" y="-720" width="155" height="40" as="geometry" />
        </mxCell>
        <mxCell id="N1mzBfULyDI2BNzyuwL3-120" value="&lt;u&gt;Course_ID&lt;/u&gt;" style="ellipse;whiteSpace=wrap;html=1;aspect=fixed;" parent="1" vertex="1">
          <mxGeometry x="650" y="-910" width="60" height="60" as="geometry" />
        </mxCell>
        <mxCell id="N1mzBfULyDI2BNzyuwL3-122" value="" style="endArrow=none;html=1;rounded=0;exitX=0.5;exitY=1;exitDx=0;exitDy=0;" parent="1" source="N1mzBfULyDI2BNzyuwL3-120" target="N1mzBfULyDI2BNzyuwL3-114" edge="1">
          <mxGeometry width="50" height="50" relative="1" as="geometry">
            <mxPoint x="-200" y="-120" as="sourcePoint" />
            <mxPoint x="-150" y="-170" as="targetPoint" />
          </mxGeometry>
        </mxCell>
        <mxCell id="N1mzBfULyDI2BNzyuwL3-123" value="&lt;u&gt;Date&lt;/u&gt;" style="ellipse;whiteSpace=wrap;html=1;aspect=fixed;" parent="1" vertex="1">
          <mxGeometry x="710" y="-900" width="65" height="65" as="geometry" />
        </mxCell>
        <mxCell id="N1mzBfULyDI2BNzyuwL3-124" value="" style="endArrow=none;html=1;rounded=0;entryX=0.5;entryY=1;entryDx=0;entryDy=0;exitX=0.5;exitY=0;exitDx=0;exitDy=0;" parent="1" source="N1mzBfULyDI2BNzyuwL3-114" target="N1mzBfULyDI2BNzyuwL3-123" edge="1">
          <mxGeometry width="50" height="50" relative="1" as="geometry">
            <mxPoint x="-200" y="-120" as="sourcePoint" />
            <mxPoint x="-150" y="-170" as="targetPoint" />
          </mxGeometry>
        </mxCell>
        <mxCell id="N1mzBfULyDI2BNzyuwL3-128" value="Student_Name" style="ellipse;whiteSpace=wrap;html=1;" parent="1" vertex="1">
          <mxGeometry x="780" y="-882.5" width="90" height="52.5" as="geometry" />
        </mxCell>
        <mxCell id="N1mzBfULyDI2BNzyuwL3-129" value="" style="endArrow=none;html=1;rounded=0;exitX=0.5;exitY=0;exitDx=0;exitDy=0;entryX=0.5;entryY=1;entryDx=0;entryDy=0;" parent="1" source="N1mzBfULyDI2BNzyuwL3-114" target="N1mzBfULyDI2BNzyuwL3-128" edge="1">
          <mxGeometry width="50" height="50" relative="1" as="geometry">
            <mxPoint x="140" y="-260" as="sourcePoint" />
            <mxPoint x="190" y="-310" as="targetPoint" />
          </mxGeometry>
        </mxCell>
        <mxCell id="N1mzBfULyDI2BNzyuwL3-130" value="Student_ID" style="ellipse;whiteSpace=wrap;html=1;" parent="1" vertex="1">
          <mxGeometry x="880" y="-875" width="100" height="50" as="geometry" />
        </mxCell>
        <mxCell id="N1mzBfULyDI2BNzyuwL3-131" value="" style="endArrow=none;html=1;rounded=0;entryX=0.75;entryY=0;entryDx=0;entryDy=0;exitX=0.5;exitY=1;exitDx=0;exitDy=0;" parent="1" source="N1mzBfULyDI2BNzyuwL3-130" target="N1mzBfULyDI2BNzyuwL3-114" edge="1">
          <mxGeometry width="50" height="50" relative="1" as="geometry">
            <mxPoint x="140" y="-260" as="sourcePoint" />
            <mxPoint x="190" y="-310" as="targetPoint" />
          </mxGeometry>
        </mxCell>
        <mxCell id="N1mzBfULyDI2BNzyuwL3-132" value="Absence_count" style="ellipse;whiteSpace=wrap;html=1;" parent="1" vertex="1">
          <mxGeometry x="990" y="-870" width="90" height="50" as="geometry" />
        </mxCell>
        <mxCell id="N1mzBfULyDI2BNzyuwL3-133" value="" style="endArrow=none;html=1;rounded=0;exitX=0.843;exitY=0.01;exitDx=0;exitDy=0;entryX=0.5;entryY=1;entryDx=0;entryDy=0;exitPerimeter=0;" parent="1" source="N1mzBfULyDI2BNzyuwL3-114" target="N1mzBfULyDI2BNzyuwL3-132" edge="1">
          <mxGeometry width="50" height="50" relative="1" as="geometry">
            <mxPoint x="140" y="-140" as="sourcePoint" />
            <mxPoint x="190" y="-190" as="targetPoint" />
          </mxGeometry>
        </mxCell>
        <mxCell id="N1mzBfULyDI2BNzyuwL3-144" value="Sections" style="rounded=0;whiteSpace=wrap;html=1;" parent="1" vertex="1">
          <mxGeometry x="450" y="80" width="210" height="60" as="geometry" />
        </mxCell>
        <mxCell id="N1mzBfULyDI2BNzyuwL3-146" value="Lectures" style="rounded=0;whiteSpace=wrap;html=1;" parent="1" vertex="1">
          <mxGeometry x="30" y="90" width="220" height="60" as="geometry" />
        </mxCell>
        <mxCell id="N1mzBfULyDI2BNzyuwL3-163" style="edgeStyle=orthogonalEdgeStyle;rounded=0;orthogonalLoop=1;jettySize=auto;html=1;entryX=0.5;entryY=0;entryDx=0;entryDy=0;endArrow=none;endFill=0;" parent="1" source="N1mzBfULyDI2BNzyuwL3-162" target="N1mzBfULyDI2BNzyuwL3-59" edge="1">
          <mxGeometry relative="1" as="geometry" />
        </mxCell>
        <mxCell id="N1mzBfULyDI2BNzyuwL3-162" value="&lt;font style=&quot;font-size: 16px;&quot;&gt;D&lt;/font&gt;" style="ellipse;whiteSpace=wrap;html=1;aspect=fixed;" parent="1" vertex="1">
          <mxGeometry x="-305" y="-555" width="65" height="65" as="geometry" />
        </mxCell>
        <mxCell id="N1mzBfULyDI2BNzyuwL3-167" style="edgeStyle=orthogonalEdgeStyle;rounded=0;orthogonalLoop=1;jettySize=auto;html=1;entryX=0.5;entryY=1;entryDx=0;entryDy=0;" parent="1" source="N1mzBfULyDI2BNzyuwL3-164" target="N1mzBfULyDI2BNzyuwL3-144" edge="1">
          <mxGeometry relative="1" as="geometry">
            <Array as="points">
              <mxPoint x="555" y="200" />
            </Array>
          </mxGeometry>
        </mxCell>
        <mxCell id="N1mzBfULyDI2BNzyuwL3-164" value="Gives" style="rhombus;whiteSpace=wrap;html=1;" parent="1" vertex="1">
          <mxGeometry x="-330" y="160" width="80" height="80" as="geometry" />
        </mxCell>
        <mxCell id="N1mzBfULyDI2BNzyuwL3-168" value="Time" style="ellipse;whiteSpace=wrap;html=1;fontStyle=4" parent="1" vertex="1">
          <mxGeometry x="400" y="20" width="70" height="30" as="geometry" />
        </mxCell>
        <mxCell id="N1mzBfULyDI2BNzyuwL3-169" value="Date" style="ellipse;whiteSpace=wrap;html=1;" parent="1" vertex="1">
          <mxGeometry x="479.5" y="20" width="70" height="30" as="geometry" />
        </mxCell>
        <mxCell id="N1mzBfULyDI2BNzyuwL3-172" value="" style="endArrow=none;html=1;rounded=0;entryX=0.5;entryY=1;entryDx=0;entryDy=0;exitX=0.099;exitY=0.03;exitDx=0;exitDy=0;exitPerimeter=0;" parent="1" source="N1mzBfULyDI2BNzyuwL3-144" target="N1mzBfULyDI2BNzyuwL3-168" edge="1">
          <mxGeometry width="50" height="50" relative="1" as="geometry">
            <mxPoint x="230" y="-20" as="sourcePoint" />
            <mxPoint x="280" y="-70" as="targetPoint" />
          </mxGeometry>
        </mxCell>
        <mxCell id="N1mzBfULyDI2BNzyuwL3-173" value="" style="endArrow=none;html=1;rounded=0;entryX=0.5;entryY=1;entryDx=0;entryDy=0;exitX=0.25;exitY=0;exitDx=0;exitDy=0;" parent="1" source="N1mzBfULyDI2BNzyuwL3-144" target="N1mzBfULyDI2BNzyuwL3-169" edge="1">
          <mxGeometry width="50" height="50" relative="1" as="geometry">
            <mxPoint x="230" y="-20" as="sourcePoint" />
            <mxPoint x="280" y="-70" as="targetPoint" />
          </mxGeometry>
        </mxCell>
        <mxCell id="N1mzBfULyDI2BNzyuwL3-174" value="Time" style="ellipse;whiteSpace=wrap;html=1;fontStyle=4" parent="1" vertex="1">
          <mxGeometry x="70" y="10" width="70" height="30" as="geometry" />
        </mxCell>
        <mxCell id="N1mzBfULyDI2BNzyuwL3-176" value="Date" style="ellipse;whiteSpace=wrap;html=1;" parent="1" vertex="1">
          <mxGeometry x="145" y="10" width="70" height="30" as="geometry" />
        </mxCell>
        <mxCell id="N1mzBfULyDI2BNzyuwL3-179" value="Place" style="ellipse;whiteSpace=wrap;html=1;" parent="1" vertex="1">
          <mxGeometry x="330" y="20" width="60" height="30" as="geometry" />
        </mxCell>
        <mxCell id="N1mzBfULyDI2BNzyuwL3-180" value="Place" style="ellipse;whiteSpace=wrap;html=1;" parent="1" vertex="1">
          <mxGeometry x="10" y="10" width="60" height="30" as="geometry" />
        </mxCell>
        <mxCell id="N1mzBfULyDI2BNzyuwL3-182" value="" style="endArrow=none;html=1;rounded=0;entryX=0.5;entryY=1;entryDx=0;entryDy=0;exitX=0;exitY=0.25;exitDx=0;exitDy=0;" parent="1" source="N1mzBfULyDI2BNzyuwL3-144" target="N1mzBfULyDI2BNzyuwL3-179" edge="1">
          <mxGeometry width="50" height="50" relative="1" as="geometry">
            <mxPoint x="230" y="-140" as="sourcePoint" />
            <mxPoint x="280" y="-190" as="targetPoint" />
          </mxGeometry>
        </mxCell>
        <mxCell id="N1mzBfULyDI2BNzyuwL3-188" value="" style="endArrow=none;html=1;rounded=0;entryX=0.5;entryY=1;entryDx=0;entryDy=0;exitX=0.25;exitY=0;exitDx=0;exitDy=0;" parent="1" source="N1mzBfULyDI2BNzyuwL3-146" target="N1mzBfULyDI2BNzyuwL3-180" edge="1">
          <mxGeometry width="50" height="50" relative="1" as="geometry">
            <mxPoint x="160" y="140" as="sourcePoint" />
            <mxPoint x="60" y="-110" as="targetPoint" />
          </mxGeometry>
        </mxCell>
        <mxCell id="N1mzBfULyDI2BNzyuwL3-193" style="edgeStyle=orthogonalEdgeStyle;rounded=0;orthogonalLoop=1;jettySize=auto;html=1;entryX=0;entryY=0.5;entryDx=0;entryDy=0;" parent="1" source="N1mzBfULyDI2BNzyuwL3-192" target="N1mzBfULyDI2BNzyuwL3-146" edge="1">
          <mxGeometry relative="1" as="geometry" />
        </mxCell>
        <mxCell id="N1mzBfULyDI2BNzyuwL3-192" value="Gives" style="rhombus;whiteSpace=wrap;html=1;" parent="1" vertex="1">
          <mxGeometry x="-35" y="-180" width="80" height="80" as="geometry" />
        </mxCell>
        <mxCell id="DfDif5Hq1K-kdrC9LdW2-1" value="&lt;u&gt;Master&#39;s specialization&lt;/u&gt;" style="ellipse;whiteSpace=wrap;html=1;" parent="1" vertex="1">
          <mxGeometry y="-500" width="100" height="70" as="geometry" />
        </mxCell>
        <mxCell id="DfDif5Hq1K-kdrC9LdW2-2" value="" style="endArrow=none;html=1;rounded=0;entryX=0.5;entryY=1;entryDx=0;entryDy=0;exitX=0.75;exitY=0;exitDx=0;exitDy=0;" parent="1" source="N1mzBfULyDI2BNzyuwL3-61" target="DfDif5Hq1K-kdrC9LdW2-1" edge="1">
          <mxGeometry width="50" height="50" relative="1" as="geometry">
            <mxPoint x="-320" y="-340" as="sourcePoint" />
            <mxPoint x="-270" y="-390" as="targetPoint" />
          </mxGeometry>
        </mxCell>
        <mxCell id="DfDif5Hq1K-kdrC9LdW2-3" value="&lt;u&gt;Diploma&#39;s specialization&lt;/u&gt;" style="ellipse;whiteSpace=wrap;html=1;aspect=fixed;" parent="1" vertex="1">
          <mxGeometry x="-750" y="-520" width="80" height="80" as="geometry" />
        </mxCell>
        <mxCell id="DfDif5Hq1K-kdrC9LdW2-4" value="" style="endArrow=none;html=1;rounded=0;exitX=0.5;exitY=1;exitDx=0;exitDy=0;entryX=0.25;entryY=0;entryDx=0;entryDy=0;" parent="1" source="DfDif5Hq1K-kdrC9LdW2-3" target="N1mzBfULyDI2BNzyuwL3-59" edge="1">
          <mxGeometry width="50" height="50" relative="1" as="geometry">
            <mxPoint x="-320" y="-340" as="sourcePoint" />
            <mxPoint x="-270" y="-390" as="targetPoint" />
          </mxGeometry>
        </mxCell>
        <mxCell id="ilKd4mXJEwFR4TKSU7tU-1" value="&lt;font style=&quot;font-size: 16px;&quot;&gt;m&lt;/font&gt;" style="text;html=1;align=center;verticalAlign=middle;resizable=0;points=[];autosize=1;strokeColor=none;fillColor=none;" parent="1" vertex="1">
          <mxGeometry x="-30" y="-340" width="40" height="30" as="geometry" />
        </mxCell>
        <mxCell id="ilKd4mXJEwFR4TKSU7tU-7" value="&lt;font style=&quot;font-size: 16px;&quot;&gt;n&lt;/font&gt;" style="text;html=1;align=center;verticalAlign=middle;resizable=0;points=[];autosize=1;strokeColor=none;fillColor=none;" parent="1" vertex="1">
          <mxGeometry x="5" y="80" width="30" height="30" as="geometry" />
        </mxCell>
        <mxCell id="ilKd4mXJEwFR4TKSU7tU-10" value="&lt;font style=&quot;font-size: 16px;&quot;&gt;m&lt;/font&gt;" style="text;html=1;align=center;verticalAlign=middle;resizable=0;points=[];autosize=1;strokeColor=none;fillColor=none;" parent="1" vertex="1">
          <mxGeometry x="-765" y="-340" width="40" height="30" as="geometry" />
        </mxCell>
        <mxCell id="ilKd4mXJEwFR4TKSU7tU-13" value="&lt;span style=&quot;font-size: 16px;&quot;&gt;n&lt;/span&gt;" style="text;html=1;align=center;verticalAlign=middle;resizable=0;points=[];autosize=1;strokeColor=none;fillColor=none;" parent="1" vertex="1">
          <mxGeometry x="525" y="140" width="30" height="30" as="geometry" />
        </mxCell>
        <mxCell id="ilKd4mXJEwFR4TKSU7tU-26" value="&lt;font style=&quot;font-size: 16px;&quot;&gt;m&lt;/font&gt;" style="text;html=1;align=center;verticalAlign=middle;resizable=0;points=[];autosize=1;strokeColor=none;fillColor=none;" parent="1" vertex="1">
          <mxGeometry x="140" y="-730" width="40" height="30" as="geometry" />
        </mxCell>
        <mxCell id="ilKd4mXJEwFR4TKSU7tU-31" value="" style="endArrow=none;html=1;rounded=0;exitX=0.364;exitY=0;exitDx=0;exitDy=0;exitPerimeter=0;entryX=0.5;entryY=1;entryDx=0;entryDy=0;" parent="1" source="N1mzBfULyDI2BNzyuwL3-146" target="N1mzBfULyDI2BNzyuwL3-174" edge="1">
          <mxGeometry width="50" height="50" relative="1" as="geometry">
            <mxPoint x="120" y="70" as="sourcePoint" />
            <mxPoint x="170" y="20" as="targetPoint" />
          </mxGeometry>
        </mxCell>
        <mxCell id="ilKd4mXJEwFR4TKSU7tU-33" value="" style="endArrow=none;html=1;rounded=0;entryX=0.5;entryY=1;entryDx=0;entryDy=0;exitX=0.5;exitY=0;exitDx=0;exitDy=0;" parent="1" source="N1mzBfULyDI2BNzyuwL3-146" target="N1mzBfULyDI2BNzyuwL3-176" edge="1">
          <mxGeometry width="50" height="50" relative="1" as="geometry">
            <mxPoint x="120" y="70" as="sourcePoint" />
            <mxPoint x="170" y="20" as="targetPoint" />
          </mxGeometry>
        </mxCell>
        <mxCell id="ilKd4mXJEwFR4TKSU7tU-34" value="&lt;font style=&quot;font-size: 16px;&quot;&gt;&amp;nbsp;n&lt;/font&gt;" style="text;html=1;align=center;verticalAlign=middle;resizable=0;points=[];autosize=1;strokeColor=none;fillColor=none;" parent="1" vertex="1">
          <mxGeometry x="240" y="-320" width="40" height="30" as="geometry" />
        </mxCell>
        <mxCell id="ilKd4mXJEwFR4TKSU7tU-37" value="" style="endArrow=none;html=1;rounded=0;entryX=0;entryY=0.5;entryDx=0;entryDy=0;exitX=1;exitY=0.5;exitDx=0;exitDy=0;" parent="1" source="N1mzBfULyDI2BNzyuwL3-66" target="N1mzBfULyDI2BNzyuwL3-71" edge="1">
          <mxGeometry width="50" height="50" relative="1" as="geometry">
            <mxPoint x="360" y="-400" as="sourcePoint" />
            <mxPoint x="410" y="-450" as="targetPoint" />
          </mxGeometry>
        </mxCell>
        <mxCell id="ilKd4mXJEwFR4TKSU7tU-44" value="&lt;font style=&quot;font-size: 16px;&quot;&gt;m&lt;/font&gt;" style="text;html=1;align=center;verticalAlign=middle;resizable=0;points=[];autosize=1;strokeColor=none;fillColor=none;" parent="1" vertex="1">
          <mxGeometry x="365" y="-730" width="40" height="30" as="geometry" />
        </mxCell>
        <mxCell id="ilKd4mXJEwFR4TKSU7tU-45" value="&lt;font style=&quot;font-size: 16px;&quot;&gt;n&lt;/font&gt;" style="text;html=1;align=center;verticalAlign=middle;resizable=0;points=[];autosize=1;strokeColor=none;fillColor=none;" parent="1" vertex="1">
          <mxGeometry x="710" y="-730" width="30" height="30" as="geometry" />
        </mxCell>
      </root>
    </mxGraphModel>
  </diagram>
</mxfile>
